<svg xmlns="http://www.w3.org/2000/svg" width="121" height="152">
  <path
    d="M60.514 151c-8.115 0-15.667-4.28-19.73-11.179L13.527 95.236C5.332 84.9 1 72.523 1 59.408 1 27.202 27.692 1 60.5 1S120 27.202 120 59.408c0 13.115-4.332 25.492-12.528 35.828l-27.295 44.65c-3.997 6.833-11.549 11.112-19.664 11.112V151zm0-139.886c-27.135 0-49.199 21.673-49.199 48.296 0 10.928 3.635 21.238 10.516 29.836.134.172.255.343.362.527l27.457 44.912a12.619 12.619 0 0010.85 6.202c4.44 0 8.585-2.344 10.812-6.123l27.51-44.993a4.61 4.61 0 01.362-.527c6.881-8.585 10.516-18.908 10.516-29.836.013-26.624-22.051-48.296-49.185-48.296l-.001.002zm0 73.55C46.336 84.664 34.8 73.34 34.8 59.422c0-13.93 11.535-25.254 25.713-25.254 14.177 0 25.713 11.324 25.713 25.241 0 13.93-11.536 25.255-25.713 25.255zm0-40.382c-8.504 0-15.412 6.794-15.412 15.129 0 8.348 6.921 15.129 15.412 15.129 8.504 0 15.411-6.794 15.411-15.13 0-8.334-6.907-15.128-15.411-15.128z"
    stroke="#000"
    stroke-width=".25"
    fill-rule="evenodd"
  />
</svg>
