<svg xmlns="http://www.w3.org/2000/svg" width="152" height="152">
  <path
    d="M151 143.516l-41.588-41.507c20.4-24.233 19.371-60.33-3.36-83.023-24.021-23.981-63.014-23.981-87.036 0-24.021 23.982-24.021 62.908 0 86.89 11.885 11.865 27.897 18.05 43.644 18.05 14.205 0 28.147-4.895 39.77-14.444L144.016 151l6.983-7.484zM25.432 98.453c-20.076-20.062-20.076-52.9 0-72.962 10.165-10.159 23.203-15.116 36.505-15.116 13.303 0 26.595 4.947 36.506 15.116 20.076 20.062 20.076 52.9 0 72.962-20.076 20.062-52.936 20.063-73.011 0z"
  />
</svg>
